<?xml version="1.0" encoding="UTF-8" standalone="no"?>
<svg
   version="1.1"
   x="0px"
   y="0px"
   viewBox="0 0 36 36"
   xml:space="preserve"
   id="svg4"
   width="36"
   height="36"
   xmlns="http://www.w3.org/2000/svg"
   xmlns:svg="http://www.w3.org/2000/svg">

	<path
  fill="#f8bb10"
   d="m 26.237537,13.572843 c 0.0128,0.186029 0.0128,0.372057 0.0128,0.5598 0,5.72059 -4.333944,12.318169 -12.258746,12.318169 v -0.0035 c -2.341009,0.0035 -4.6333922,-0.670363 -6.6041418,-1.940842 0.3404022,0.04115 0.6825107,0.06173 1.0254724,0.06258 1.9400364,0.0017 3.8246194,-0.652385 5.3508834,-1.856854 -1.843631,-0.03515 -3.460329,-1.243047 -4.0251064,-3.00646 0.6458254,0.125162 1.3112734,0.09944 1.9451564,-0.07459 -2.0099997,-0.40801 -3.4560692,-2.182567 -3.4560692,-4.243453 v -0.05487 c 0.5989031,0.335194 1.2694698,0.521222 1.9553932,0.541797 -1.8931142,-1.271333 -2.4766608,-3.802006 -1.3334554,-5.780594 2.1874474,2.7047 5.4148684,4.348951 8.8794644,4.522977 -0.347227,-1.503658 0.127117,-3.079328 1.246435,-4.136346 1.735283,-1.6391081 4.464473,-1.5550952 6.095674,0.187743 0.964899,-0.191172 1.889702,-0.546941 2.736015,-1.0510181 -0.321634,1.0021531 -0.99476,1.8534261 -1.893968,2.3943661 0.853993,-0.101159 1.688361,-0.330908 2.474101,-0.681533 -0.578427,0.870991 -1.307007,1.629678 -2.149908,2.242628 z"/>
</svg>