<?xml version="1.0" encoding="UTF-8" standalone="no"?>
<svg
   width="26.25"
   height="21"
   version="1.1"
   id="svg1"
   sodipodi:docname="icon-prof-github.svg"
   inkscape:version="1.3.2 (091e20e, 2023-11-25, custom)"
   xmlns:inkscape="http://www.inkscape.org/namespaces/inkscape"
   xmlns:sodipodi="http://sodipodi.sourceforge.net/DTD/sodipodi-0.dtd"
   xmlns="http://www.w3.org/2000/svg"
   xmlns:svg="http://www.w3.org/2000/svg">
  <defs
     id="defs1" />
  <sodipodi:namedview
     id="namedview1"
     pagecolor="#ffffff"
     bordercolor="#000000"
     borderopacity="0.25"
     inkscape:showpageshadow="2"
     inkscape:pageopacity="0.0"
     inkscape:pagecheckerboard="0"
     inkscape:deskcolor="#d1d1d1"
     inkscape:zoom="35.296296"
     inkscape:cx="13.5"
     inkscape:cy="11.006821"
     inkscape:window-width="1920"
     inkscape:window-height="1009"
     inkscape:window-x="-8"
     inkscape:window-y="-8"
     inkscape:window-maximized="1"
     inkscape:current-layer="svg1" />
  <g
     id="g1"
     transform="matrix(0.75031649,0,0,0.75031649,0.3731626,3.0596338)">
    <path
       style="fill:#e0e0e0"
       d="m 3.6003593,0.34266425 c -0.14977,0.005 -0.29897,0.0163 -0.44649,0.0356 -1.03639,1.47128995 -1.05564,3.32589995 -0.35501,5.65081995 -4.46569,5.2309598 -2.42057992,14.6363408 5.71541,15.2409308 1.8072597,0.37856 10.5585297,-0.0326 10.5585297,-0.0326 10.60676,-0.85088 7.85875,-13.5662806 5.48907,-15.4342008 0.37492,-0.67321 1.22151,-3.4257 -0.41961,-5.26323995 -2.35149,-0.35222 -4.0343,0.45625 -5.84461,1.84019995 -3.13416,-0.81173 -5.88395,-0.6845 -9.1699797,-0.032 -0.84056,-0.59918 -3.28076,-2.07760995 -5.52731,-2.00555995 z m 4.94595,10.15802975 c 0.2616,1e-4 0.53097,0.0164 0.80719,0.0491 4.2471797,0.50254 5.3725497,0.48268 10.2360597,-0.0326 1.80257,-0.19096 3.50627,1.93395 3.41117,4.610051 -0.0797,2.24455 -1.23271,4.81196 -5.64669,5.11494 -0.6886,0.0473 -2.88698,0.0534 -5.54643,0.0263 -6.2727897,-0.0639 -7.4638397,-2.72363 -7.5163397,-5.25291 -0.06217,-2.994291 1.72625,-4.515571 4.25504,-4.514971 z m 0.14521,1.30845 a 2.0503812,3.0997891 0 0 0 -2.05052,3.099551 2.0503812,3.0997891 0 0 0 2.05052,3.10007 2.0503812,3.0997891 0 0 0 2.0505197,-3.10007 2.0503812,3.0997891 0 0 0 -2.0505197,-3.099551 z m 10.0422797,0.032 a 2.0503812,3.0997891 0 0 0 -2.05052,3.100071 2.0503812,3.0997891 0 0 0 2.05052,3.09955 2.0503812,3.0997891 0 0 0 2.05001,-3.09955 2.0503812,3.0997891 0 0 0 -2.05001,-3.100071 z"
       id="path1" />
  </g>
</svg>
