<?xml version="1.0" encoding="UTF-8" standalone="no"?>
<svg
   width="25"
   height="25"
   version="1.1"
   id="svg1"
   sodipodi:docname="icon-prof-flickr.svg"
   inkscape:version="1.3.2 (091e20e, 2023-11-25, custom)"
   xmlns:inkscape="http://www.inkscape.org/namespaces/inkscape"
   xmlns:sodipodi="http://sodipodi.sourceforge.net/DTD/sodipodi-0.dtd"
   xmlns="http://www.w3.org/2000/svg"
   xmlns:svg="http://www.w3.org/2000/svg">
  <defs
     id="defs1" />
  <sodipodi:namedview
     id="namedview1"
     pagecolor="#ffffff"
     bordercolor="#000000"
     borderopacity="0.25"
     inkscape:showpageshadow="2"
     inkscape:pageopacity="0.0"
     inkscape:pagecheckerboard="0"
     inkscape:deskcolor="#d1d1d1"
     inkscape:zoom="32.52"
     inkscape:cx="12.5"
     inkscape:cy="12.5"
     inkscape:window-width="1920"
     inkscape:window-height="1009"
     inkscape:window-x="-8"
     inkscape:window-y="-8"
     inkscape:window-maximized="1"
     inkscape:current-layer="svg1" />
  <g
     id="g1"
     transform="matrix(0.89828618,0,0,0.89828618,0.70534884,2.0196816)">
    <path
       style="fill:#e0e0e0"
       d="m 2.9816397,0.28344043 c -1.51788,0 -2.73989003,1.22149007 -2.73989003,2.73936007 V 22.01958 c 0,1.51787 1.22201003,2.73988 2.73989003,2.73988 H 21.97789 c 1.51788,0 2.73989,-1.22201 2.73989,-2.73988 V 3.0228005 c 0,-1.51787 -1.22201,-2.73936007 -2.73989,-2.73936007 z m 5.13767,8.87284007 a 3.4479408,3.4042957 0 0 1 3.4478503,3.4044395 3.4479408,3.4042957 0 0 1 -3.4478503,3.40393 3.4479408,3.4042957 0 0 1 -3.44785,-3.40393 3.4479408,3.4042957 0 0 1 3.44785,-3.4044395 z m 8.6304803,0 a 3.4479408,3.4042957 0 0 1 3.44785,3.4044395 3.4479408,3.4042957 0 0 1 -3.44785,3.40393 3.4479408,3.4042957 0 0 1 -3.44785,-3.40393 3.4479408,3.4042957 0 0 1 3.44785,-3.4044395 z"
       id="path1" />
  </g>
</svg>
