<?xml version="1.0" encoding="UTF-8" standalone="no"?>
<!-- Created with Inkscape (http://www.inkscape.org/) -->

<svg
   width="18mm"
   height="28mm"
   viewBox="0 0 18 28"
   version="1.1"
   id="svg1"
   inkscape:version="1.3.2 (091e20e, 2023-11-25, custom)"
   sodipodi:docname="icon-prof-deviantart.svg"
   xmlns:inkscape="http://www.inkscape.org/namespaces/inkscape"
   xmlns:sodipodi="http://sodipodi.sourceforge.net/DTD/sodipodi-0.dtd"
   xmlns="http://www.w3.org/2000/svg"
   xmlns:svg="http://www.w3.org/2000/svg">
  <sodipodi:namedview
     id="namedview1"
     pagecolor="#ffffff"
     bordercolor="#000000"
     borderopacity="0.25"
     inkscape:showpageshadow="2"
     inkscape:pageopacity="0.0"
     inkscape:pagecheckerboard="0"
     inkscape:deskcolor="#d1d1d1"
     inkscape:document-units="mm"
     showguides="true"
     inkscape:zoom="4.0970529"
     inkscape:cx="51.378395"
     inkscape:cy="71.636859"
     inkscape:window-width="1920"
     inkscape:window-height="1009"
     inkscape:window-x="-8"
     inkscape:window-y="-8"
     inkscape:window-maximized="1"
     inkscape:current-layer="layer1">
    <sodipodi:guide
       position="85.115046,216.47007"
       orientation="0,-1"
       id="guide1"
       inkscape:locked="false" />
    <sodipodi:guide
       position="91.702098,244.3036"
       orientation="0,-1"
       id="guide2"
       inkscape:locked="false" />
    <sodipodi:guide
       position="87.698201,224.6716"
       orientation="1,0"
       id="guide3"
       inkscape:locked="false" />
  </sodipodi:namedview>
  <defs
     id="defs1" />
  <g
     inkscape:label="Слой 1"
     inkscape:groupmode="layer"
     id="layer1">
    <path
       style="vector-effect:non-scaling-stroke;fill:#e0e0e0;fill-opacity:1;stroke:none;stroke-width:0.264583;stroke-linejoin:round;stroke-opacity:1;-inkscape-stroke:hairline"
       d="m 0.27090598,27.936862 -0.02283,-5.09156 4.81113102,-9.182244 c 0,0 0.332611,-0.623906 0.168946,-0.866895 C 5.064489,12.553174 4.542576,12.573435 4.542576,12.573435 l -4.29450002,0.02026 V 5.6527357 l 8.52602502,0.06256 c 0,0 0.31709,-0.02489 0.480253,-0.153642 0.163163,-0.128747 0.285426,-0.385833 0.316216,-0.420548 2.640183,-5.12434309 2.618697,-5.05940409 2.618697,-5.05940409 l 5.525368,0.02283 0.02283,5.31987909 -4.664848,8.3511963 c 0,0 -0.475565,0.744268 -0.481235,0.747166 -0.405232,0.853394 0.660787,1.005203 0.660787,1.005203 l 4.553796,-0.01178 -0.02283,6.963791 -8.574313,-0.0081 c 0,0 -0.346742,-0.02255 -0.562489,0.108965 -0.215747,0.131513 -0.32839,0.371317 -0.32839,0.371317 l -2.681485,4.984675 z"
       id="path4"
       sodipodi:nodetypes="ccczcccczcccccccccczccc" />
  </g>
</svg>
