<?xml version="1.0" encoding="UTF-8" standalone="no"?>

<svg
   width="18"
   height="28"
   xmlns="http://www.w3.org/2000/svg"
   xmlns:svg="http://www.w3.org/2000/svg">
  
  <g>
    <path
       style="fill:#e0e0e0;"
       d="m 0.27090598,27.936862 -0.02283,-5.09156 4.81113102,-9.182244 c 0,0 0.332611,-0.623906 0.168946,-0.866895 C 5.064489,12.553174 4.542576,12.573435 4.542576,12.573435 l -4.29450002,0.02026 V 5.6527357 l 8.52602502,0.06256 c 0,0 0.31709,-0.02489 0.480253,-0.153642 0.163163,-0.128747 0.285426,-0.385833 0.316216,-0.420548 2.640183,-5.12434309 2.618697,-5.05940409 2.618697,-5.05940409 l 5.525368,0.02283 0.02283,5.31987909 -4.664848,8.3511963 c 0,0 -0.475565,0.744268 -0.481235,0.747166 -0.405232,0.853394 0.660787,1.005203 0.660787,1.005203 l 4.553796,-0.01178 -0.02283,6.963791 -8.574313,-0.0081 c 0,0 -0.346742,-0.02255 -0.562489,0.108965 -0.215747,0.131513 -0.32839,0.371317 -0.32839,0.371317 l -2.681485,4.984675 z"/>
  </g>
</svg>
