<?xml version="1.0" encoding="UTF-8" standalone="no"?>

<svg
   xmlns="http://www.w3.org/2000/svg"
   xmlns:svg="http://www.w3.org/2000/svg">
  
  <g>
    <path
       style="fill:#e0e0e0;"
       d="m 2.9816397,0.28344043 c -1.51788,0 -2.73989003,1.22149007 -2.73989003,2.73936007 V 22.01958 c 0,1.51787 1.22201003,2.73988 2.73989003,2.73988 H 21.97789 c 1.51788,0 2.73989,-1.22201 2.73989,-2.73988 V 3.0228005 c 0,-1.51787 -1.22201,-2.73936007 -2.73989,-2.73936007 z m 5.13767,8.87284007 a 3.4479408,3.4042957 0 0 1 3.4478503,3.4044395 3.4479408,3.4042957 0 0 1 -3.4478503,3.40393 3.4479408,3.4042957 0 0 1 -3.44785,-3.40393 3.4479408,3.4042957 0 0 1 3.44785,-3.4044395 z m 8.6304803,0 a 3.4479408,3.4042957 0 0 1 3.44785,3.4044395 3.4479408,3.4042957 0 0 1 -3.44785,3.40393 3.4479408,3.4042957 0 0 1 -3.44785,-3.40393 3.4479408,3.4042957 0 0 1 3.44785,-3.4044395 z" />
  </g>
</svg>
