<?xml version="1.0" encoding="UTF-8" standalone="no"?>
<svg
   width="38"
   height="38"
   viewBox="0 0 38 38"
   version="1.1"
   id="svg1"
   sodipodi:docname="icon-dribbble.svg"
   inkscape:version="1.3.2 (091e20e, 2023-11-25, custom)"
   xmlns:inkscape="http://www.inkscape.org/namespaces/inkscape"
   xmlns:sodipodi="http://sodipodi.sourceforge.net/DTD/sodipodi-0.dtd"
   xmlns="http://www.w3.org/2000/svg"
   xmlns:svg="http://www.w3.org/2000/svg">
  <defs
     id="defs1" />
  <sodipodi:namedview
     id="namedview1"
     pagecolor="#ffffff"
     bordercolor="#000000"
     borderopacity="0.25"
     inkscape:showpageshadow="2"
     inkscape:pageopacity="0.0"
     inkscape:pagecheckerboard="0"
     inkscape:deskcolor="#d1d1d1"
     inkscape:zoom="13.008"
     inkscape:cx="25.753383"
     inkscape:cy="22.255535"
     inkscape:window-width="1920"
     inkscape:window-height="1009"
     inkscape:window-x="-8"
     inkscape:window-y="-8"
     inkscape:window-maximized="1"
     inkscape:current-layer="svg1" />
  <path
     d="m 8.0870201,19.006595 c 0,-2.03346 0.5009017,-3.909902 1.5026611,-5.629373 1.0017808,-1.71947 2.3624078,-3.080073 4.0818558,-4.0818539 1.719471,-1.0017818 3.595935,-1.5026611 5.629373,-1.5026611 2.033458,0 3.909922,0.5008793 5.62937,1.5026611 1.71947,1.0017809 3.080097,2.3623839 4.081855,4.0818539 1.001783,1.719471 1.502662,3.595913 1.502662,5.629373 0,2.033458 -0.500879,3.9099 -1.502662,5.629371 -1.001758,1.719469 -2.362385,3.080073 -4.081855,4.081855 -1.719448,1.001782 -3.595912,1.502661 -5.62937,1.502661 -2.033438,0 -3.909902,-0.500879 -5.629373,-1.502661 C 11.952089,27.716039 10.591462,26.355435 9.5896812,24.635966 8.5879218,22.916495 8.0870201,21.040053 8.0870201,19.006595 Z m 1.8615053,0 c 0,2.332488 0.7849736,4.388375 2.3549176,6.167638 0.717689,-1.405482 1.854037,-2.743658 3.409022,-4.014573 1.555007,-1.270914 3.072605,-2.070823 4.552839,-2.399772 -0.224279,-0.523307 -0.441066,-0.994291 -0.650406,-1.412949 -2.571703,0.822359 -5.352748,1.233528 -8.343133,1.233528 -0.583123,0 -1.01672,-0.0075 -1.3008116,-0.02243 0,0.05981 -0.0038,0.134566 -0.01121,0.224277 -0.0075,0.08971 -0.01121,0.164463 -0.01121,0.224279 z m 0.2915606,-2.310062 c 0.328948,0.02989 0.814891,0.04485 1.457807,0.04485 2.496975,0 4.866827,-0.336417 7.109605,-1.00925 -1.136325,-2.0185 -2.384813,-3.700583 -3.745439,-5.046248 -1.181182,0.598081 -2.194176,1.427907 -3.038965,2.489482 -0.844763,1.061574 -1.4391,2.235309 -1.783008,3.521161 z m 3.341741,9.688799 c 1.689573,1.31577 3.595934,1.973644 5.719083,1.973644 1.106451,0 2.205412,-0.209318 3.296881,-0.627977 -0.299029,-2.556766 -0.882151,-5.031291 -1.749365,-7.423594 -1.375564,0.29903 -2.76234,1.054105 -4.160354,2.265204 -1.397989,1.211101 -2.433412,2.482016 -3.106245,3.812723 z M 17.013276,9.9682012 c 1.315771,1.3606248 2.534338,3.0576458 3.655728,5.0911048 2.033458,-0.852256 3.566016,-1.936258 4.597693,-3.252028 -1.734407,-1.435376 -3.72301,-2.1530659 -5.965787,-2.1530659 -0.762545,0 -1.52509,0.104671 -2.287634,0.3139891 z m 4.463127,6.6834758 c 0.224278,0.478452 0.478475,1.084003 0.762544,1.81665 1.106452,-0.10467 2.310062,-0.156994 3.610872,-0.156994 0.92703,0 1.846569,0.02242 2.758617,0.06728 -0.119608,-2.033458 -0.852255,-3.842618 -2.197922,-5.427521 -0.971863,1.450337 -2.616558,2.683864 -4.934111,3.700583 z m 1.323239,3.386595 c 0.762544,2.212881 1.278383,4.485555 1.547516,6.818043 1.181204,-0.762544 2.145599,-1.741898 2.893183,-2.938038 0.747608,-1.196141 1.196164,-2.489483 1.345666,-3.880005 -1.091469,-0.07474 -2.085782,-0.11214 -2.982893,-0.11214 -0.822337,0 -1.756835,0.03739 -2.803472,0.11214 z"
     id="path1"
     style="stroke-width:0.0224277" />
</svg>
