<?xml version="1.0" encoding="UTF-8" standalone="no"?>
<svg
   version="1.1"
   x="0px"
   y="0px"
   viewBox="0 0 36 36"
   width="36"
   height="36"
   xmlns="http://www.w3.org/2000/svg"
   xmlns:svg="http://www.w3.org/2000/svg">

	<path
  fill="#c6c6c6"
   d="m 7.4720139,18.138954 c 0,-1.904007 0.4690137,-3.660993 1.407,-5.271 0.9380063,-1.610007 2.2120141,-2.8839921 3.8220001,-3.8219985 1.610008,-0.9380072 3.367014,-1.407 5.271001,-1.407 1.904006,0 3.661012,0.4689928 5.270998,1.407 1.610007,0.9380064 2.884015,2.2119915 3.822,3.8219985 0.938008,1.610007 1.407001,3.366993 1.407001,5.271 0,1.904006 -0.468993,3.660992 -1.407001,5.270999 -0.937985,1.610006 -2.211993,2.883993 -3.822,3.822 -1.609986,0.938007 -3.366992,1.407 -5.270998,1.407 -1.903987,0 -3.660993,-0.468993 -5.271001,-1.407 -1.609986,-0.938007 -2.8839938,-2.211994 -3.8220001,-3.822 -0.9379863,-1.610007 -1.407,-3.366993 -1.407,-5.270999 z m 1.7429998,0 c 0,2.184 0.7350013,4.109007 2.2050013,5.775 0.672,-1.316008 1.736007,-2.568994 3.192,-3.759001 1.456013,-1.190006 2.876999,-1.938992 4.263,-2.247 -0.210001,-0.489993 -0.412987,-0.930993 -0.609001,-1.322999 -2.407985,0.770007 -5.011986,1.155 -7.812,1.155 -0.5460003,0 -0.9519941,-0.007 -1.2180001,-0.021 0,0.056 -0.00356,0.126 -0.010496,0.209999 -0.00702,0.084 -0.010496,0.153994 -0.010496,0.210002 z m 0.2729995,-2.163 c 0.3080068,0.02799 0.7630138,0.04199 1.3650018,0.04199 2.338015,0 4.556999,-0.315 6.656999,-0.945 -1.063985,-1.89 -2.232993,-3.464999 -3.507,-4.724997 -1.105986,0.560005 -2.054492,1.337004 -2.845501,2.330998 -0.790984,0.993993 -1.3474853,2.093007 -1.6694998,3.297 z m 3.1290018,9.071999 c 1.582013,1.232006 3.367013,1.847999 5.355,1.847999 1.036013,0 2.065013,-0.195992 3.086998,-0.587999 -0.279992,-2.393999 -0.825992,-4.710993 -1.637998,-6.951 -1.287994,0.279994 -2.586487,0.987 -3.895502,2.120999 -1.308991,1.134001 -2.278498,2.324008 -2.908498,3.570001 z m 3.213,-15.3719977 c 1.232007,1.2740057 2.372999,2.8629927 3.423,4.7669987 1.904006,-0.798 3.338999,-1.812993 4.304999,-3.045 -1.623993,-1.343998 -3.485999,-2.0159989 -5.585999,-2.0159989 -0.714,0 -1.428001,0.098007 -2.142,0.2940002 z m 4.178999,6.2579977 c 0.21,0.447993 0.448015,1.014994 0.714,1.701 1.036014,-0.09801 2.163,-0.146999 3.380999,-0.146999 0.868015,0 1.729015,0.02099 2.583001,0.063 -0.111994,-1.904005 -0.798,-3.597992 -2.058,-5.081998 -0.909993,1.358006 -2.449985,2.513006 -4.62,3.464999 z m 1.239,3.171001 c 0.714,2.072006 1.197,4.199999 1.448999,6.383999 1.106008,-0.714 2.009008,-1.631007 2.709,-2.751 0.700015,-1.119993 1.120015,-2.330999 1.26,-3.632999 -1.021985,-0.06998 -1.952999,-0.105001 -2.792999,-0.105001 -0.769986,0 -1.644993,0.03501 -2.625,0.105001 z"/>
</svg>